<svg xmlns="http://www.w3.org/2000/svg" viewBox="0 0 310.71 56.8"><defs><style>.cls-1{fill:#98989c;}.cls-2{fill:#6bdad5;}</style></defs><title>COURSESРесурс 11</title><g id="Слой_2" data-name="Слой 2"><g id="Layer_1" data-name="Layer 1"><path class="cls-1" d="M180.09,12.33a8,8,0,0,0,3.6.8,9.67,9.67,0,0,0,2.42-.27,11.35,11.35,0,0,0,2.26-.91l.11-.06V9.17l-.3.16a13.29,13.29,0,0,1-2.3,1.05,6.27,6.27,0,0,1-1.89.28,5.09,5.09,0,0,1-2.31-.51,3.8,3.8,0,0,1-1.57-1.45,4.13,4.13,0,0,1-.56-2.13,4.11,4.11,0,0,1,.56-2.11A3.84,3.84,0,0,1,181.69,3a5,5,0,0,1,2.3-.53,6.81,6.81,0,0,1,2,.29,10.16,10.16,0,0,1,2.08.93l.3.17V1.13l-.12,0A10.58,10.58,0,0,0,186,.25,8.85,8.85,0,0,0,183.88,0a8.11,8.11,0,0,0-3.69.83,6.24,6.24,0,0,0-2.58,2.38,6.59,6.59,0,0,0-.94,3.47,6.4,6.4,0,0,0,.91,3.32A6.13,6.13,0,0,0,180.09,12.33Z"/><polygon class="cls-1" points="201.09 10.7 195.34 10.7 195.34 7.57 200.73 7.57 200.73 5.29 195.34 5.29 195.34 2.44 200.97 2.44 200.97 0.16 192.54 0.16 192.54 12.97 201.09 12.97 201.09 10.7"/><polygon class="cls-1" points="207.86 4.52 214.98 12.97 217.34 12.97 217.34 0.16 214.59 0.16 214.59 8.48 207.57 0.23 207.51 0.16 205.11 0.16 205.11 12.97 207.86 12.97 207.86 4.52"/><polygon class="cls-1" points="225.34 12.97 228.14 12.97 228.14 2.44 232.55 2.44 232.55 0.16 220.93 0.16 220.93 2.44 225.34 2.44 225.34 12.97"/><path class="cls-1" d="M252.74,12.5a7.06,7.06,0,0,0,3.08.63,6.39,6.39,0,0,0,4.38-1.39,5.14,5.14,0,0,0,1.57-4V.16H259V7.42a4.15,4.15,0,0,1-.33,1.84,2.39,2.39,0,0,1-1,1,3.84,3.84,0,0,1-1.78.38,3.29,3.29,0,0,1-1.66-.4,2.43,2.43,0,0,1-1-1,3.87,3.87,0,0,1-.31-1.68V.16H250V7.82a5.6,5.6,0,0,0,.69,2.83A4.71,4.71,0,0,0,252.74,12.5Z"/><polygon class="cls-1" points="269 0.16 266.2 0.16 266.2 12.97 275.02 12.97 275.02 10.7 269 10.7 269 0.16"/><path class="cls-1" d="M186.11,22.81a7.61,7.61,0,0,0-3.55-.82h-5.39V34.81h5.25a8.05,8.05,0,0,0,3.64-.8,5.88,5.88,0,0,0,2.47-2.26,6.43,6.43,0,0,0,.86-3.33,6.52,6.52,0,0,0-.86-3.32A5.94,5.94,0,0,0,186.11,22.81ZM180,24.27h2.27a4.31,4.31,0,0,1,3.12,1.11,4,4,0,0,1,1.15,3,4,4,0,0,1-1.14,3,4.14,4.14,0,0,1-3.05,1.14H180Z"/><rect class="cls-1" x="193.47" y="21.99" width="2.8" height="12.81"/><path class="cls-1" d="M210.15,34.81h3l-5.61-12.7,0-.12h-2.72l-5.28,12.82h2.95l1.2-3h5.25Zm-2.25-5.25h-3.4l1.62-4.18Z"/><path class="cls-1" d="M225.07,34.6a7.36,7.36,0,0,0,2.26-1l.09-.06V28.09h-4.85v2.27h2.05v1.73a7.11,7.11,0,0,1-1.08.31,5.87,5.87,0,0,1-1,.09,4.61,4.61,0,0,1-3.2-1.1,3.8,3.8,0,0,1-1.2-2.91,4.28,4.28,0,0,1,.56-2.17,3.63,3.63,0,0,1,1.55-1.48,5,5,0,0,1,2.33-.52,9.54,9.54,0,0,1,4.35,1.12l.29.15V22.93l-.12-.06a11.17,11.17,0,0,0-4.63-1,8.16,8.16,0,0,0-3.68.84,6.4,6.4,0,0,0,0,11.47,8,8,0,0,0,3.65.83A10.2,10.2,0,0,0,225.07,34.6Z"/><polygon class="cls-1" points="243.99 34.81 243.99 21.99 241.24 21.99 241.24 30.31 234.22 22.06 234.16 21.99 231.76 21.99 231.76 34.81 234.51 34.81 234.51 26.35 241.63 34.81 243.99 34.81"/><path class="cls-1" d="M258.65,34.12a6.48,6.48,0,0,0,0-11.47,7.71,7.71,0,0,0-3.56-.82,7.57,7.57,0,0,0-3.65.86A6.47,6.47,0,0,0,248,28.4a6.36,6.36,0,0,0,3.44,5.71,8,8,0,0,0,7.21,0Zm-5.78-9.29a4.44,4.44,0,0,1,2.17-.52,4.57,4.57,0,0,1,2.17.51,3.61,3.61,0,0,1,1.49,1.46,4.28,4.28,0,0,1,.53,2.12,4,4,0,0,1-1.17,3,4.14,4.14,0,0,1-3,1.14,4.54,4.54,0,0,1-2.17-.51,3.69,3.69,0,0,1-1.48-1.45,4.31,4.31,0,0,1-.53-2.13,4.24,4.24,0,0,1,.52-2.12A3.54,3.54,0,0,1,252.87,24.83Z"/><polygon class="cls-1" points="276.75 24.27 281.16 24.27 281.16 34.81 283.96 34.81 283.96 24.27 288.37 24.27 288.37 21.99 276.75 21.99 276.75 24.27"/><rect class="cls-1" x="292.02" y="21.99" width="2.8" height="12.81"/><path class="cls-1" d="M310.41,31.17a14,14,0,0,1-2.31,1,6.17,6.17,0,0,1-1.89.28A5.12,5.12,0,0,1,303.9,32a3.8,3.8,0,0,1-1.57-1.45,4.1,4.1,0,0,1-.55-2.13,4,4,0,0,1,.56-2.1,3.78,3.78,0,0,1,1.57-1.47,5,5,0,0,1,2.3-.52,6.75,6.75,0,0,1,2,.28,9.92,9.92,0,0,1,2.08.93l.3.18V23l-.11-.06a10.45,10.45,0,0,0-2.23-.83,9.3,9.3,0,0,0-2.11-.25,8.11,8.11,0,0,0-3.69.83A6.38,6.38,0,0,0,299.84,25a6.5,6.5,0,0,0-.94,3.47,6.28,6.28,0,0,0,.91,3.32,6,6,0,0,0,2.51,2.33,7.79,7.79,0,0,0,3.6.81,9.56,9.56,0,0,0,2.41-.28,10.84,10.84,0,0,0,2.27-.91l.11-.06V31Z"/><path class="cls-1" d="M184,52.2h2.06v1.72a6.36,6.36,0,0,1-1.08.31,5.06,5.06,0,0,1-1.05.1,4.55,4.55,0,0,1-3.2-1.11,3.76,3.76,0,0,1-1.2-2.91,4.28,4.28,0,0,1,.56-2.17,3.69,3.69,0,0,1,1.55-1.48,5,5,0,0,1,2.33-.52,9.7,9.7,0,0,1,4.35,1.12l.29.15V44.76l-.12,0a11.17,11.17,0,0,0-4.63-1,8,8,0,0,0-3.69.84,6.51,6.51,0,0,0-2.6,9.12A6.26,6.26,0,0,0,180.16,56a8,8,0,0,0,3.65.83,9.81,9.81,0,0,0,2.72-.37,7.35,7.35,0,0,0,2.26-1l.09-.07V49.92H184Z"/><polygon class="cls-1" points="196.02 51.24 201.4 51.24 201.4 48.96 196.02 48.96 196.02 46.1 201.64 46.1 201.64 43.83 193.22 43.83 193.22 56.64 201.77 56.64 201.77 54.36 196.02 54.36 196.02 51.24"/><polygon class="cls-1" points="226.42 48.61 222.43 43.83 219.98 43.83 219.98 56.64 222.78 56.64 222.78 48.2 226.14 52.3 226.67 52.3 230.04 48.2 230.04 56.64 232.84 56.64 232.84 43.83 230.4 43.83 226.42 48.61"/><path class="cls-1" d="M244,43.83h-2.72L236,56.64h3l1.2-3h5.24l1.29,3h3L244,44Zm.44,7.57H241l1.63-4.18Z"/><polygon class="cls-1" points="262.25 52.14 255.23 43.9 255.16 43.83 252.77 43.83 252.77 56.64 255.51 56.64 255.51 48.19 262.64 56.64 264.99 56.64 264.99 43.83 262.25 43.83 262.25 52.14"/><path class="cls-1" d="M236.15.16h5.68a5.06,5.06,0,0,1,3.69,1.28,3.71,3.71,0,0,1,1,2.75v0a3.86,3.86,0,0,1-3,3.85L247,13h-3.33l-3.09-4.52H239V13h-2.8Zm5.25,6c1.43,0,2.36-.68,2.36-1.84v0c0-1.23-.89-1.86-2.37-1.86H239V6.17Z"/><path class="cls-1" d="M205.73,43.83h5.68a5,5,0,0,1,3.69,1.29,3.69,3.69,0,0,1,1,2.74v0a3.87,3.87,0,0,1-3,3.86l3.41,4.89h-3.33l-3.1-4.52h-1.6v4.52h-2.8Zm5.25,6c1.42,0,2.36-.68,2.36-1.84v0c0-1.22-.89-1.86-2.37-1.86h-2.44v3.73Z"/><path class="cls-1" d="M270.73,27c-2.42-.54-2.84-1-2.84-1.76s.73-1.19,1.86-1.19a6.28,6.28,0,0,1,3.87,1.49V22.87a6.94,6.94,0,0,0-3.83-1c-2.6,0-4.41,1.55-4.41,3.81s1.58,3.51,4.3,4.14c2.39.55,2.64,1.09,2.65,1.67,0,.78-.79,1.21-2,1.18a6.72,6.72,0,0,1-4.66-1.91V33.5a7.67,7.67,0,0,0,4.6,1.47c2.79,0,4.6-1.53,4.6-3.92C274.85,29,273.66,27.74,270.73,27Z"/><path class="cls-2" d="M22.65,43.71A14.08,14.08,0,0,1,20,42.58c-.37-.2-.74-.4-1.09-.63A13.16,13.16,0,0,1,17,40.43,13.91,13.91,0,0,1,16,39.31a13.23,13.23,0,0,1-1.53-2.24c-.14-.26-.26-.54-.39-.81a19.32,19.32,0,0,1-.74-2c-.2-.63-.39-1.26-.53-1.9s-.2-1.3-.27-2-.13-1.3-.13-1.95.07-1.31.13-2,.14-1.3.27-1.94.33-1.27.53-1.9a17.84,17.84,0,0,1,.74-2.05c.13-.28.25-.55.39-.81A13.82,13.82,0,0,1,17,16.39a12.5,12.5,0,0,1,1.88-1.52A11.84,11.84,0,0,1,20,14.24a14.81,14.81,0,0,1,2.65-1.14l.58-.13a14.59,14.59,0,0,1,3.42-.46h12A12.13,12.13,0,0,0,50.82.38V.17H26.66A26.41,26.41,0,0,0,2.19,16.84,31.63,31.63,0,0,0,2.19,40a25.85,25.85,0,0,0,2.08,4.14,26.3,26.3,0,0,0,19,12.31,25.74,25.74,0,0,0,3.42.22H50.82v-.2A12.13,12.13,0,0,0,38.69,44.31h-12a14.45,14.45,0,0,1-3.41-.47A5.61,5.61,0,0,1,22.65,43.71Z"/><path class="cls-2" d="M132.12,12.51H148A12.35,12.35,0,0,0,160.3.17H132.12a26.3,26.3,0,0,0-24.47,16.67l-7.31,18.62a14,14,0,0,1-13,8.85H70.81A12.34,12.34,0,0,0,58.47,56.64H87.35A26.29,26.29,0,0,0,111.82,40l7.31-18.61A14,14,0,0,1,132.12,12.51Z"/><path class="cls-2" d="M70.81,21.1V12.51H88.58a13.92,13.92,0,0,1,11.64,6.32l1.84-4.67,1-2.43a7.24,7.24,0,0,0-3.4-9.15C96.87,1.1,93.76.17,87.12.17H64.46a6,6,0,0,0-6,6V33.43A12.33,12.33,0,0,0,70.81,21.1Z"/><path class="cls-2" d="M148,35.72v8.59H130.9A14,14,0,0,1,119.25,38l-1.83,4.68-1,2.42a7.23,7.23,0,0,0,3.39,9.16c2.75,1.48,5.86,2.4,12.51,2.4h21.95a6,6,0,0,0,6-6V23.38A12.33,12.33,0,0,0,148,35.72Z"/></g></g></svg>